HIERARCHY
ROOT Hips
{
 OFFSET 0.000000 0.000000 0.000000
 CHANNELS 6 Xposition Yposition Zposition Yrotation Xrotation Zrotation
 JOINT Chest
 {
  OFFSET 0.000000 9.585900 0.002600
  CHANNELS 3 Yrotation Xrotation Zrotation
  JOINT Chest2
  {
   OFFSET 0.000000 9.601200 -0.005300
   CHANNELS 3 Yrotation Xrotation Zrotation
   JOINT Chest3
   {
    OFFSET 0.000000 9.561800 0.000000
    CHANNELS 3 Yrotation Xrotation Zrotation
    JOINT Chest4
    {
     OFFSET 0.000000 9.552100 0.000000
     CHANNELS 3 Yrotation Xrotation Zrotation
     JOINT Neck
     {
      OFFSET 0.000000 14.453000 0.000000
      CHANNELS 3 Yrotation Xrotation Zrotation
      JOINT Head
      {
       OFFSET 0.000000 8.936500 -0.011300
       CHANNELS 3 Yrotation Xrotation Zrotation
       End Site
       {
        OFFSET 0.000000 17.073600 -0.006000
       }
      }
     }
     JOINT RightCollar
     {
      OFFSET -2.921100 9.558500 0.000000
      CHANNELS 3 Yrotation Xrotation Zrotation
      JOINT RightShoulder
      {
       OFFSET -13.519700 0.000000 0.000000
       CHANNELS 3 Yrotation Xrotation Zrotation
       JOINT RightElbow
       {
        OFFSET 0.000000 -29.696600 0.000000
        CHANNELS 3 Yrotation Xrotation Zrotation
        JOINT RightWrist
        {
         OFFSET 0.000000 -24.004700 0.000000
         CHANNELS 3 Yrotation Xrotation Zrotation
         End Site
         {
          OFFSET 0.000000 -17.728500 0.000000
         }
        }
       }
      }
     }
     JOINT LeftCollar
     {
      OFFSET 2.921100 9.558500 0.000000
      CHANNELS 3 Yrotation Xrotation Zrotation
      JOINT LeftShoulder
      {
       OFFSET 13.519700 0.000000 0.000000
       CHANNELS 3 Yrotation Xrotation Zrotation
       JOINT LeftElbow
       {
        OFFSET 0.000000 -29.696600 0.000000
        CHANNELS 3 Yrotation Xrotation Zrotation
        JOINT LeftWrist
        {
         OFFSET 0.000000 -24.004700 0.000000
         CHANNELS 3 Yrotation Xrotation Zrotation
         End Site
         {
          OFFSET 0.000000 -17.728500 0.000000
         }
        }
       }
      }
     }
    }
   }
  }
 }
 JOINT RightHip
 {
  OFFSET -7.771700 -0.012900 -0.001300
  CHANNELS 3 Yrotation Xrotation Zrotation
  JOINT RightKnee
  {
   OFFSET 0.000000 -40.869800 0.001200
   CHANNELS 3 Yrotation Xrotation Zrotation
   JOINT RightAnkle
   {
    OFFSET 0.000000 -39.717900 0.002100
    CHANNELS 3 Yrotation Xrotation Zrotation
    JOINT RightToe
    {
     OFFSET 0.000000 -4.965400 11.033500
     CHANNELS 3 Yrotation Xrotation Zrotation
     End Site
     {
      OFFSET 0.000000 -1.423100 5.872300
     }
    }
   }
  }
 }
 JOINT LeftHip
 {
  OFFSET 7.771700 -0.012900 -0.001300
  CHANNELS 3 Yrotation Xrotation Zrotation
  JOINT LeftKnee
  {
   OFFSET 0.000000 -40.869800 0.001200
   CHANNELS 3 Yrotation Xrotation Zrotation
   JOINT LeftAnkle
   {
    OFFSET 0.000000 -39.717900 0.002100
    CHANNELS 3 Yrotation Xrotation Zrotation
    JOINT LeftToe
    {
     OFFSET 0.000000 -4.965400 11.033500
     CHANNELS 3 Yrotation Xrotation Zrotation
     End Site
     {
      OFFSET 0.000000 -1.423100 5.872300
     }
    }
   }
  }
 }
}
MOTION
Frames: 8
Frame Time: 0.008333
-31.805796 46.804413 19.466255 176.647206 -30.996574 -2.884721 1.024701 18.527736 0.976266 0.061276 2.153450 0.121455 0.158699 3.490356 0.184135 0.768818 16.148753 0.971333 0.126930 16.186034 -3.553988 1.359969 -5.525697 -6.427980 0.228915 0.466463 -2.257129 7.224604 -7.085149 -16.023935 -49.201688 -55.164802 100.159863 -2.145661 5.301362 -18.932401 0.955021 0.103593 2.506287 -5.037098 -2.934418 14.279408 80.173056 -72.164968 -119.806647 -4.404272 12.102912 2.161602 -5.264720 -56.426714 -7.150322 -136.762018 78.729014 -128.187901 -7.617646 -14.318956 -6.128661 0.021667 -0.961759 -0.352287 -0.576073 -57.842524 10.381238 -111.040955 80.626500 -115.246916 6.006318 -6.948086 5.974888 0.150546 0.205494 -0.074172
-31.807754 46.801218 19.459727 176.624107 -30.953386 -2.863323 0.993954 18.542430 0.966574 0.078862 2.132240 0.115925 0.169139 3.471530 0.176920 0.763899 16.152862 0.971349 0.074902 16.244393 -3.442521 1.353785 -5.561815 -6.389249 0.185656 0.500145 -2.253045 7.229184 -7.085511 -16.044365 -49.239811 -55.132560 100.158854 -2.113569 5.306690 -18.899915 0.914392 0.130545 2.518981 -5.034593 -2.954773 14.258481 80.154353 -72.173895 -119.787790 -4.411653 12.109345 2.135264 -5.165214 -56.494219 -7.184628 -136.459214 78.737175 -127.952053 -7.499709 -13.943714 -6.045003 -0.032402 -1.029142 -0.306948 -0.604643 -57.876321 10.377269 -111.077361 80.632466 -115.275729 6.030305 -6.962329 5.944277 0.164052 0.205713 -0.057561
-31.808699 46.800390 19.451541 176.623955 -30.919631 -2.868997 0.963597 18.556055 0.976271 0.082073 2.125292 0.113324 0.138081 3.514810 0.189262 0.794141 16.092868 0.947681 0.033822 16.278224 -3.356652 1.328070 -5.582159 -6.310910 0.163773 0.512653 -2.253185 7.208291 -7.068777 -16.061142 -49.274691 -55.122178 100.181341 -2.103057 5.304281 -18.888733 0.863439 0.158077 2.535022 -5.033568 -2.974666 14.234547 80.132220 -72.182719 -119.763111 -4.417820 12.108607 2.131792 -5.089625 -56.546722 -7.213789 -136.156219 78.727279 -127.687098 -7.392763 -13.570099 -6.014167 -0.071520 -1.084321 -0.239169 -0.672562 -57.900839 10.393867 -111.128488 80.641609 -115.315090 6.060237 -6.976485 5.915021 0.155759 0.202585 -0.014687
-31.803982 46.804355 19.439222 176.665971 -30.915411 -2.935565 0.916824 18.592814 1.028495 0.093170 2.106521 0.106246 0.127750 3.527843 0.193235 0.769594 16.107644 0.946990 0.019420 16.276499 -3.295901 1.294460 -5.596635 -6.209540 0.144343 0.516786 -2.260205 7.206099 -7.070400 -16.085987 -49.305202 -55.140670 100.248203 -2.122233 5.292568 -18.919520 0.830244 0.160653 2.542515 -4.992111 -3.008898 14.207111 80.051225 -72.188850 -119.725202 -4.422889 12.105561 2.139987 -4.990724 -56.550763 -7.277799 -136.093154 78.707405 -127.552568 -7.361805 -13.283145 -6.057315 -0.053941 -1.085144 -0.140132 -0.832578 -57.895224 10.478167 -111.217697 80.657572 -115.387528 6.117645 -6.961892 5.912871 0.130942 0.171155 -0.033887
-31.805217 46.809284 19.427896 176.684729 -30.902413 -2.957653 0.877568 18.618741 1.049081 0.104675 2.089919 0.096723 0.133157 3.518192 0.189772 0.673324 16.191460 0.976016 0.043005 16.229225 -3.268196 1.262985 -5.613462 -6.108108 0.162995 0.491183 -2.298443 7.254506 -7.113049 -16.119633 -49.321401 -55.140613 100.268426 -2.141131 5.277747 -18.949229 0.851397 0.117289 2.512064 -5.028486 -3.015322 14.186433 80.070117 -72.195324 -119.712456 -4.423139 12.085103 2.193779 -4.974412 -56.568693 -7.288031 -135.809134 78.673934 -127.302102 -7.258724 -13.038918 -6.083002 -0.086030 -1.033156 -0.068536 -0.914347 -57.902049 10.491718 -111.350263 80.683526 -115.498883 6.145878 -6.964558 5.893915 0.121777 0.159187 -0.033814
-31.807897 46.815630 19.417461 176.716075 -30.883844 -2.976164 0.836911 18.619825 1.056003 0.087623 2.113942 0.103954 0.125927 3.522841 0.190133 0.612717 16.211744 0.982294 0.048505 16.208717 -3.224718 1.230636 -5.628376 -6.007074 0.187120 0.483450 -2.328117 7.220662 -7.112384 -16.149762 -49.377220 -55.108092 100.276695 -2.097985 5.290929 -18.865255 0.860768 0.099673 2.489470 -5.081089 -3.018485 14.170497 80.085552 -72.203227 -119.688023 -4.424418 12.092234 2.201190 -4.956674 -56.584994 -7.322523 -135.669098 78.636843 -127.172988 -7.181739 -12.931066 -6.128594 -0.103689 -0.905922 -0.005402 -0.981034 -57.915699 10.476636 -111.504036 80.714700 -115.626882 6.152795 -6.966744 5.907710 0.129975 0.149222 -0.063241
-31.812245 46.823054 19.407720 176.767656 -30.861764 -2.990271 0.773520 18.617021 1.048310 0.069059 2.133902 0.114341 0.073731 3.564362 0.216228 0.601725 16.182983 0.954304 0.039426 16.204596 -3.171971 1.195301 -5.638531 -5.906060 0.230864 0.465898 -2.365450 7.144514 -7.086026 -16.165005 -49.406630 -55.120926 100.358026 -2.110592 5.281730 -18.862775 0.858721 0.093998 2.470029 -5.122644 -3.025433 14.155714 80.062323 -72.214305 -119.646994 -4.422553 12.105840 2.216951 -4.896801 -56.593283 -7.421033 -135.829162 78.648063 -127.301329 -7.186247 -12.938503 -6.174624 -0.104477 -0.730317 0.039111 -1.031715 -57.933354 10.424371 -111.658924 80.747347 -115.754500 6.176911 -6.967949 5.893135 0.127263 0.138291 -0.069963
-31.811200 46.830784 19.399764 176.784496 -30.835823 -3.012891 0.730089 18.618996 1.075130 0.047858 2.154485 0.126131 0.102269 3.535705 0.192419 0.542768 16.211482 0.971207 0.028938 16.202907 -3.118523 1.157043 -5.644355 -5.803121 0.227870 0.500143 -2.383199 7.129170 -7.119086 -16.208942 -49.418666 -55.147715 100.445233 -2.154708 5.263854 -18.898339 0.875253 0.076188 2.440761 -5.197842 -3.024701 14.147185 80.028770 -72.232059 -119.590607 -4.408074 12.085421 2.292940 -4.878537 -56.604971 -7.436513 -135.934194 78.663701 -127.384686 -7.201738 -12.984656 -6.203080 -0.089486 -0.556472 0.057360 -1.080352 -57.956516 10.432113 -111.763530 80.757298 -115.829170 6.190173 -6.969638 5.866483 0.136046 0.127506 -0.050193
